<svg id="Calque_1" data-name="Calque 1" xmlns="http://www.w3.org/2000/svg" viewBox="0 0 189.01 189.01"><path d="M671.51,386.47H643.8a8.77,8.77,0,0,0-8.75,8.76v27.71a8.72,8.72,0,0,0,2.54,6.16,8.86,8.86,0,0,0,6.21,2.59h27.71a8.84,8.84,0,0,0,8.75-8.75V395.23a8.77,8.77,0,0,0-8.75-8.76Zm.88,36.47a1,1,0,0,1-.28.65.92.92,0,0,1-.6.23H643.8a.87.87,0,0,1-.93-.88V395.23a1,1,0,0,1,.93-.93h27.71a.76.76,0,0,1,.6.28.8.8,0,0,1,.28.65Z" transform="translate(-588.03 -289.19)" style="fill:#4a3d8d"/><path d="M671.51,337.6H643.8a8.77,8.77,0,0,0-8.75,8.75v27.71a8.65,8.65,0,0,0,2.55,6.16,8.78,8.78,0,0,0,6.2,2.59h27.71a8.84,8.84,0,0,0,8.75-8.75V346.35a8.76,8.76,0,0,0-8.75-8.75Zm.87,36.46a.94.94,0,0,1-.27.65.87.87,0,0,1-.6.23H643.8a.91.91,0,0,1-.65-.23,1,1,0,0,1-.28-.65V346.35a.81.81,0,0,1,.28-.65.79.79,0,0,1,.65-.27h27.71a.76.76,0,0,1,.6.27.8.8,0,0,1,.27.65Z" transform="translate(-588.03 -289.19)" style="fill:#4a3d8d"/><path d="M749,317.21a94.07,94.07,0,1,0,27.52,66.49A93.69,93.69,0,0,0,749,317.21Zm-5.56,127.41a86.13,86.13,0,1,1,25.25-60.93A85.75,85.75,0,0,1,743.46,444.62Z" transform="translate(-588.03 -289.19)" style="fill:#4a3d8d;stroke:#4a3d8d;stroke-miterlimit:10"/><path d="M718.07,328.7a8.68,8.68,0,0,0-12.37,0l-19.6,19.6a8.68,8.68,0,0,0-2.55,6.16,8.77,8.77,0,0,0,2.55,6.21l19.6,19.55a8.68,8.68,0,0,0,12.37,0l19.6-19.6a8.67,8.67,0,0,0,2.54-6.16,8.8,8.8,0,0,0-2.54-6.21Zm14,26.41-19.6,19.6a1,1,0,0,1-.65.23,1.12,1.12,0,0,1-.65-.23l-19.55-19.6a.89.89,0,0,1,0-1.3l19.55-19.59a1.13,1.13,0,0,1,.65-.24,1,1,0,0,1,.65.24l19.6,19.59a1,1,0,0,1,.28.65A.94.94,0,0,1,732.11,355.11Z" transform="translate(-588.03 -289.19)" style="fill:#f54883"/><path d="M720,386.47h-27.7a8.79,8.79,0,0,0-8.76,8.76v27.71a8.73,8.73,0,0,0,2.55,6.16,8.86,8.86,0,0,0,6.21,2.59H720a8.76,8.76,0,0,0,8.71-8.75V395.23a8.69,8.69,0,0,0-8.71-8.76Zm.88,36.47a.94.94,0,0,1-.27.65.93.93,0,0,1-.61.23h-27.7a.87.87,0,0,1-.93-.88V395.23a1,1,0,0,1,.93-.93H720a.94.94,0,0,1,.88.93Z" transform="translate(-588.03 -289.19)" style="fill:#4a3d8d"/></svg>